<?xml version="1.0" encoding="UTF-8"?>
<svg xmlns="http://www.w3.org/2000/svg" xmlns:xlink="http://www.w3.org/1999/xlink" width="32px" height="32px" viewBox="0 0 32 32" version="1.1">
<g id="surface1">
<path style=" stroke:none;fill-rule:nonzero;fill:rgb(98.823529%,98.823529%,98.823529%);fill-opacity:1;" d="M 0 0 C 10.558594 0 21.121094 0 32 0 C 32 10.558594 32 21.121094 32 32 C 21.441406 32 10.878906 32 0 32 C 0 21.441406 0 10.878906 0 0 Z M 0 0 "/>
<path style=" stroke:none;fill-rule:nonzero;fill:rgb(3.137255%,3.137255%,3.137255%);fill-opacity:1;" d="M 15.523438 5.988281 C 15.695312 6.082031 15.847656 6.195312 16 6.3125 C 16.050781 6.273438 16.050781 6.273438 16.101562 6.234375 C 16.167969 6.179688 16.167969 6.179688 16.238281 6.128906 C 16.28125 6.09375 16.328125 6.0625 16.371094 6.027344 C 16.671875 5.816406 17.023438 5.832031 17.375 5.875 C 18.042969 6.128906 18.34375 6.765625 18.625 7.375 C 18.738281 7.648438 18.839844 7.925781 18.941406 8.207031 C 18.980469 8.316406 18.980469 8.316406 19.023438 8.429688 C 19.191406 8.890625 19.347656 9.351562 19.5 9.816406 C 19.570312 10.019531 19.652344 10.210938 19.742188 10.402344 C 19.859375 10.667969 19.949219 10.941406 20.039062 11.214844 C 20.144531 11.523438 20.273438 11.820312 20.410156 12.117188 C 20.570312 12.464844 20.722656 12.820312 20.875 13.171875 C 20.914062 13.261719 20.953125 13.347656 20.988281 13.433594 C 21.5625 14.730469 21.8125 15.96875 21.921875 17.378906 C 21.941406 17.597656 21.957031 17.820312 21.976562 18.039062 C 21.988281 18.171875 22 18.308594 22.011719 18.445312 C 22.128906 19.917969 22.398438 21.328125 23.5 22.375 C 23.550781 22.347656 23.550781 22.347656 23.605469 22.320312 C 23.652344 22.296875 23.699219 22.273438 23.75 22.25 C 23.796875 22.226562 23.84375 22.199219 23.894531 22.175781 C 24.238281 22.070312 24.546875 22.179688 24.855469 22.347656 C 25.066406 22.480469 25.253906 22.636719 25.445312 22.789062 C 25.96875 23.199219 26.554688 23.523438 27.125 23.859375 C 27.25 23.9375 27.25 23.9375 27.3125 24 C 27.339844 24.324219 27.339844 24.324219 27.246094 24.492188 C 27.054688 24.601562 26.90625 24.582031 26.6875 24.5625 C 26.523438 24.484375 26.386719 24.410156 26.238281 24.3125 C 26.175781 24.273438 26.175781 24.273438 26.117188 24.234375 C 25.992188 24.15625 25.871094 24.078125 25.75 24 C 25.683594 23.957031 25.613281 23.914062 25.542969 23.867188 C 25.179688 23.632812 24.835938 23.378906 24.503906 23.097656 C 24.375 22.988281 24.375 22.988281 24.1875 22.9375 C 24.191406 23.058594 24.191406 23.058594 24.199219 23.179688 C 24.199219 23.753906 23.964844 24.234375 23.675781 24.71875 C 23.644531 24.769531 23.613281 24.824219 23.582031 24.875 C 23.355469 25.257812 23.109375 25.605469 22.8125 25.9375 C 22.761719 25.996094 22.707031 26.058594 22.652344 26.121094 C 21.917969 26.949219 21.09375 27.6875 20.0625 28.125 C 19.980469 28.125 19.898438 28.125 19.8125 28.125 C 20.113281 28.652344 20.53125 29.074219 20.953125 29.507812 C 21.054688 29.617188 21.160156 29.730469 21.261719 29.839844 C 21.320312 29.902344 21.382812 29.96875 21.441406 30.03125 C 21.492188 30.085938 21.546875 30.144531 21.601562 30.199219 C 21.738281 30.328125 21.738281 30.328125 21.894531 30.3125 C 22.667969 30.015625 23.300781 29.535156 23.863281 28.9375 C 23.910156 28.890625 23.910156 28.890625 23.957031 28.839844 C 24.042969 28.75 24.125 28.660156 24.210938 28.566406 C 24.375 28.4375 24.375 28.4375 24.574219 28.410156 C 24.75 28.4375 24.75 28.4375 24.875 28.5625 C 24.871094 28.960938 24.730469 29.140625 24.464844 29.40625 C 24.429688 29.441406 24.394531 29.476562 24.359375 29.515625 C 24.261719 29.613281 24.164062 29.714844 24.0625 29.8125 C 24.023438 29.855469 23.980469 29.898438 23.9375 29.941406 C 23.527344 30.335938 22.996094 30.597656 22.5 30.875 C 22.539062 30.921875 22.582031 30.96875 22.625 31.015625 C 22.785156 31.234375 22.785156 31.359375 22.75 31.625 C 22.5625 31.75 22.5625 31.75 22.351562 31.742188 C 22.101562 31.679688 21.984375 31.605469 21.789062 31.433594 C 21.730469 31.382812 21.671875 31.332031 21.609375 31.28125 C 21.554688 31.226562 21.496094 31.175781 21.4375 31.125 C 21.386719 31.082031 21.335938 31.039062 21.285156 30.992188 C 21.019531 30.769531 20.789062 30.535156 20.566406 30.269531 C 20.433594 30.121094 20.292969 29.980469 20.148438 29.839844 C 18.894531 28.617188 18.894531 28.617188 18.78125 27.933594 C 18.824219 27.683594 18.933594 27.597656 19.125 27.4375 C 19.1875 27.394531 19.25 27.355469 19.3125 27.3125 C 18.828125 26.863281 18.335938 26.4375 17.816406 26.03125 C 16.859375 25.257812 16.375 24.136719 16 23 C 15.972656 23.070312 15.949219 23.140625 15.921875 23.214844 C 15.578125 24.144531 15.167969 24.941406 14.5 25.6875 C 14.464844 25.726562 14.433594 25.765625 14.398438 25.804688 C 14.070312 26.152344 13.675781 26.4375 13.296875 26.726562 C 13.136719 26.851562 12.976562 26.980469 12.820312 27.105469 C 12.769531 27.144531 12.71875 27.1875 12.667969 27.226562 C 12.632812 27.253906 12.597656 27.285156 12.5625 27.3125 C 12.621094 27.339844 12.679688 27.367188 12.738281 27.394531 C 13.042969 27.554688 13.042969 27.554688 13.125 27.6875 C 13.1875 28.027344 13.128906 28.21875 12.949219 28.511719 C 12.472656 29.195312 11.90625 29.800781 11.316406 30.390625 C 11.21875 30.488281 11.117188 30.589844 11.019531 30.691406 C 9.988281 31.730469 9.988281 31.730469 9.550781 31.765625 C 9.375 31.75 9.375 31.75 9.257812 31.675781 C 9.160156 31.515625 9.152344 31.433594 9.1875 31.25 C 9.289062 31.144531 9.394531 31.039062 9.5 30.9375 C 9.433594 30.898438 9.371094 30.859375 9.304688 30.820312 C 8.78125 30.503906 8.308594 30.183594 7.875 29.75 C 7.824219 29.699219 7.773438 29.648438 7.71875 29.597656 C 7.128906 29.019531 7.128906 29.019531 7.113281 28.703125 C 7.117188 28.601562 7.117188 28.601562 7.125 28.5 C 7.3125 28.40625 7.414062 28.402344 7.625 28.4375 C 7.792969 28.574219 7.925781 28.738281 8.0625 28.902344 C 8.476562 29.371094 8.894531 29.695312 9.4375 30 C 9.492188 30.035156 9.550781 30.070312 9.605469 30.105469 C 9.859375 30.269531 9.859375 30.269531 10.148438 30.308594 C 10.375 30.226562 10.515625 30.074219 10.679688 29.902344 C 10.730469 29.851562 10.730469 29.851562 10.78125 29.800781 C 10.992188 29.578125 11.199219 29.355469 11.398438 29.121094 C 11.554688 28.933594 11.722656 28.753906 11.886719 28.574219 C 12.003906 28.429688 12.097656 28.285156 12.1875 28.125 C 12.132812 28.117188 12.078125 28.109375 12.023438 28.101562 C 10.691406 27.84375 9.449219 26.417969 8.714844 25.355469 C 8.226562 24.625 7.789062 23.898438 7.75 23 C 7.574219 23.085938 7.414062 23.179688 7.25 23.289062 C 7.203125 23.320312 7.15625 23.351562 7.109375 23.382812 C 7.0625 23.417969 7.011719 23.449219 6.960938 23.484375 C 6.5625 23.75 6.164062 24.011719 5.75 24.25 C 5.703125 24.28125 5.652344 24.308594 5.601562 24.339844 C 5.308594 24.519531 5.105469 24.613281 4.75 24.5625 C 4.625 24.4375 4.625 24.4375 4.605469 24.222656 C 4.625 24 4.625 24 4.703125 23.902344 C 4.828125 23.796875 4.957031 23.726562 5.105469 23.652344 C 5.808594 23.277344 6.472656 22.851562 7.097656 22.355469 C 7.371094 22.164062 7.667969 22.148438 8 22.1875 C 8.171875 22.28125 8.171875 22.28125 8.3125 22.375 C 8.5625 22.402344 8.5625 22.402344 8.714844 22.253906 C 8.769531 22.199219 8.820312 22.144531 8.875 22.089844 C 8.953125 22.011719 8.953125 22.011719 9.035156 21.929688 C 9.335938 21.574219 9.484375 21.226562 9.59375 20.78125 C 9.605469 20.730469 9.621094 20.675781 9.632812 20.625 C 9.671875 20.457031 9.710938 20.292969 9.75 20.125 C 9.765625 20.046875 9.765625 20.046875 9.785156 19.972656 C 9.996094 19.007812 10.058594 18.03125 10.117188 17.046875 C 10.191406 15.851562 10.382812 14.515625 11.027344 13.480469 C 11.144531 13.277344 11.226562 13.066406 11.304688 12.84375 C 11.335938 12.753906 11.371094 12.664062 11.402344 12.574219 C 11.417969 12.53125 11.4375 12.488281 11.453125 12.441406 C 11.613281 12 11.785156 11.5625 11.96875 11.128906 C 12.113281 10.78125 12.238281 10.429688 12.363281 10.078125 C 12.421875 9.914062 12.484375 9.761719 12.558594 9.605469 C 12.777344 9.128906 12.933594 8.621094 13.105469 8.128906 C 13.738281 6.292969 13.738281 6.292969 14.472656 5.929688 C 14.839844 5.800781 15.175781 5.820312 15.523438 5.988281 Z M 15.523438 5.988281 "/>
<path style=" stroke:none;fill-rule:nonzero;fill:rgb(98.039216%,98.039216%,98.039216%);fill-opacity:1;" d="M 17.03125 6.617188 C 17.382812 6.730469 17.539062 6.9375 17.710938 7.253906 C 17.882812 7.617188 18.007812 7.996094 18.136719 8.375 C 18.265625 8.75 18.40625 9.121094 18.558594 9.488281 C 18.773438 10.011719 18.964844 10.542969 19.144531 11.082031 C 19.246094 11.378906 19.355469 11.65625 19.5 11.9375 C 19.550781 12.0625 19.597656 12.1875 19.644531 12.3125 C 19.757812 12.609375 19.875 12.898438 20 13.1875 C 20.179688 13.601562 20.34375 14.015625 20.5 14.4375 C 20.519531 14.484375 20.535156 14.53125 20.554688 14.578125 C 20.601562 14.699219 20.644531 14.816406 20.6875 14.9375 C 20.703125 14.980469 20.71875 15.023438 20.734375 15.066406 C 20.96875 15.71875 21.019531 16.398438 21.074219 17.085938 C 21.191406 18.507812 21.316406 19.945312 21.75 21.3125 C 21.777344 21.40625 21.777344 21.40625 21.808594 21.5 C 21.984375 22.007812 22.3125 22.402344 22.714844 22.75 C 22.753906 22.785156 22.789062 22.816406 22.828125 22.847656 C 22.902344 22.910156 22.976562 22.972656 23.054688 23.035156 C 23.160156 23.121094 23.160156 23.121094 23.3125 23.3125 C 23.328125 24.292969 22.457031 25.234375 21.835938 25.910156 C 20.917969 26.851562 20.917969 26.851562 20.4375 27.0625 C 20.175781 27.054688 20.015625 26.859375 19.839844 26.6875 C 19.597656 26.457031 19.355469 26.238281 19.09375 26.03125 C 17.441406 24.695312 16.644531 23.117188 16.410156 21.003906 C 16.292969 19.804688 16.296875 18.476562 16.632812 17.308594 C 16.742188 16.914062 16.773438 16.546875 16.773438 16.136719 C 16.773438 16.082031 16.773438 16.03125 16.773438 15.976562 C 16.769531 15.640625 16.722656 15.328125 16.660156 15 C 16.59375 14.636719 16.546875 14.273438 16.496094 13.90625 C 16.480469 13.789062 16.480469 13.789062 16.464844 13.671875 C 16.375 13.03125 16.300781 12.394531 16.296875 11.75 C 16.296875 11.703125 16.292969 11.65625 16.292969 11.609375 C 16.289062 11.28125 16.289062 11.28125 16.394531 11.125 C 16.558594 11.027344 16.6875 11.039062 16.875 11.0625 C 17.066406 11.207031 17.101562 11.355469 17.152344 11.585938 C 17.21875 11.859375 17.285156 12.132812 17.359375 12.40625 C 17.378906 12.476562 17.394531 12.546875 17.414062 12.617188 C 17.4375 12.691406 17.457031 12.765625 17.476562 12.84375 C 17.625 13.390625 17.769531 13.941406 17.902344 14.492188 C 17.914062 14.542969 17.929688 14.597656 17.941406 14.648438 C 18.003906 14.902344 18.066406 15.15625 18.125 15.410156 C 18.148438 15.5 18.171875 15.59375 18.195312 15.6875 C 18.203125 15.730469 18.214844 15.773438 18.226562 15.816406 C 18.285156 16.058594 18.285156 16.058594 18.4375 16.25 C 18.597656 16.265625 18.597656 16.265625 18.75 16.25 C 18.832031 16.179688 18.832031 16.179688 18.824219 16.003906 C 18.820312 15.707031 18.746094 15.433594 18.671875 15.152344 C 18.65625 15.097656 18.644531 15.042969 18.628906 14.984375 C 18.53125 14.601562 18.421875 14.222656 18.308594 13.84375 C 18.242188 13.597656 18.183594 13.355469 18.128906 13.109375 C 17.898438 11.78125 17.898438 11.78125 17.273438 10.652344 C 17.027344 10.503906 16.847656 10.484375 16.5625 10.460938 C 16.5 10.449219 16.5 10.449219 16.4375 10.4375 C 16.339844 10.238281 16.351562 10.023438 16.339844 9.804688 C 16.335938 9.730469 16.335938 9.730469 16.332031 9.652344 C 16.324219 9.5 16.320312 9.34375 16.3125 9.1875 C 16.308594 9.113281 16.308594 9.113281 16.308594 9.039062 C 16.300781 8.902344 16.300781 8.765625 16.296875 8.628906 C 16.296875 8.546875 16.292969 8.46875 16.292969 8.386719 C 16.3125 8.1875 16.3125 8.1875 16.398438 8.066406 C 16.5 8 16.5 8 16.621094 7.996094 C 16.960938 8.171875 17.074219 8.609375 17.1875 8.953125 C 17.21875 9.046875 17.253906 9.144531 17.285156 9.238281 C 17.308594 9.308594 17.308594 9.308594 17.332031 9.378906 C 17.398438 9.574219 17.476562 9.765625 17.554688 9.957031 C 17.949219 10.921875 18.308594 11.902344 18.671875 12.878906 C 18.753906 13.089844 18.832031 13.300781 18.914062 13.515625 C 19.09375 13.992188 19.269531 14.472656 19.429688 14.957031 C 19.515625 15.195312 19.597656 15.417969 19.75 15.625 C 19.945312 15.679688 19.945312 15.679688 20.125 15.6875 C 20.167969 15.164062 20.019531 14.765625 19.828125 14.28125 C 19.785156 14.171875 19.785156 14.171875 19.742188 14.058594 C 19.625 13.75 19.507812 13.445312 19.371094 13.148438 C 19.226562 12.832031 19.117188 12.503906 19.007812 12.175781 C 18.84375 11.699219 18.667969 11.234375 18.464844 10.773438 C 18.363281 10.535156 18.277344 10.292969 18.191406 10.046875 C 18.011719 9.523438 17.816406 9.007812 17.609375 8.492188 C 17.570312 8.394531 17.53125 8.292969 17.492188 8.191406 C 17.371094 7.902344 17.253906 7.691406 17 7.5 C 16.832031 7.441406 16.675781 7.40625 16.5 7.375 C 16.472656 7.105469 16.472656 6.976562 16.628906 6.75 C 16.8125 6.625 16.8125 6.625 17.03125 6.617188 Z M 17.03125 6.617188 "/>
<path style=" stroke:none;fill-rule:nonzero;fill:rgb(98.039216%,98.039216%,98.039216%);fill-opacity:1;" d="M 14.941406 6.636719 C 15.136719 6.660156 15.203125 6.699219 15.375 6.816406 C 15.527344 7.039062 15.527344 7.171875 15.5 7.4375 C 15.386719 7.441406 15.386719 7.441406 15.269531 7.449219 C 15.066406 7.476562 15 7.5 14.828125 7.625 C 14.515625 8.042969 14.375 8.546875 14.203125 9.035156 C 14.113281 9.296875 14.019531 9.550781 13.910156 9.804688 C 13.667969 10.367188 13.46875 10.949219 13.257812 11.523438 C 13.03125 12.148438 12.796875 12.765625 12.546875 13.378906 C 12.417969 13.699219 12.292969 14.023438 12.179688 14.351562 C 12.121094 14.511719 12.050781 14.667969 11.984375 14.824219 C 11.867188 15.105469 11.851562 15.324219 11.875 15.625 C 12.054688 15.652344 12.054688 15.652344 12.25 15.625 C 12.453125 15.363281 12.539062 15.042969 12.640625 14.734375 C 12.78125 14.324219 12.929688 13.917969 13.097656 13.519531 C 13.265625 13.125 13.410156 12.730469 13.550781 12.328125 C 13.648438 12.042969 13.757812 11.761719 13.871094 11.480469 C 14.019531 11.113281 14.15625 10.738281 14.285156 10.363281 C 14.421875 9.960938 14.570312 9.566406 14.738281 9.175781 C 14.851562 8.90625 14.949219 8.632812 15.050781 8.355469 C 15.121094 8.195312 15.171875 8.105469 15.3125 8 C 15.5 8.015625 15.554688 8.054688 15.6875 8.1875 C 15.699219 8.347656 15.703125 8.496094 15.699219 8.65625 C 15.699219 8.703125 15.699219 8.75 15.699219 8.796875 C 15.691406 9.15625 15.679688 9.515625 15.660156 9.875 C 15.65625 9.925781 15.65625 9.972656 15.652344 10.023438 C 15.632812 10.367188 15.632812 10.367188 15.5625 10.4375 C 15.476562 10.445312 15.386719 10.453125 15.300781 10.457031 C 15.015625 10.488281 14.84375 10.550781 14.625 10.75 C 14.371094 11.179688 14.257812 11.632812 14.136719 12.113281 C 14.113281 12.195312 14.09375 12.277344 14.070312 12.363281 C 14.015625 12.574219 13.960938 12.789062 13.90625 13 C 13.855469 13.195312 13.804688 13.394531 13.753906 13.589844 C 13.699219 13.804688 13.640625 14.023438 13.585938 14.238281 C 13.511719 14.53125 13.4375 14.820312 13.355469 15.109375 C 13.34375 15.152344 13.332031 15.195312 13.320312 15.242188 C 13.289062 15.347656 13.257812 15.453125 13.226562 15.5625 C 13.183594 15.773438 13.175781 15.96875 13.1875 16.1875 C 13.253906 16.265625 13.253906 16.265625 13.402344 16.261719 C 13.574219 16.265625 13.574219 16.265625 13.6875 16.125 C 13.734375 15.945312 13.777344 15.769531 13.816406 15.589844 C 13.949219 15.011719 14.097656 14.441406 14.25 13.867188 C 14.277344 13.777344 14.300781 13.6875 14.324219 13.59375 C 14.449219 13.136719 14.578125 12.691406 14.75 12.25 C 14.78125 12.128906 14.8125 12.003906 14.84375 11.878906 C 15.003906 11.246094 15.003906 11.246094 15.1875 11.0625 C 15.527344 11.089844 15.527344 11.089844 15.6875 11.25 C 15.699219 11.410156 15.703125 11.5625 15.703125 11.722656 C 15.703125 11.769531 15.703125 11.816406 15.703125 11.867188 C 15.695312 12.332031 15.648438 12.789062 15.589844 13.253906 C 15.574219 13.386719 15.558594 13.523438 15.542969 13.65625 C 15.484375 14.152344 15.402344 14.632812 15.289062 15.121094 C 15.097656 16.023438 15.117188 16.957031 15.375 17.84375 C 15.492188 18.257812 15.511719 18.660156 15.511719 19.085938 C 15.511719 19.144531 15.511719 19.199219 15.515625 19.257812 C 15.515625 19.375 15.515625 19.492188 15.515625 19.613281 C 15.515625 19.789062 15.515625 19.964844 15.519531 20.144531 C 15.527344 21.484375 15.351562 22.726562 14.75 23.9375 C 14.726562 23.988281 14.703125 24.039062 14.675781 24.089844 C 14.222656 24.972656 13.460938 25.621094 12.679688 26.207031 C 12.507812 26.332031 12.34375 26.464844 12.179688 26.605469 C 12.121094 26.65625 12.0625 26.707031 12 26.761719 C 11.945312 26.808594 11.894531 26.855469 11.839844 26.90625 C 11.6875 27 11.6875 27 11.53125 27 C 10.292969 26.523438 9.269531 25.015625 8.742188 23.863281 C 8.675781 23.65625 8.648438 23.527344 8.6875 23.3125 C 8.808594 23.167969 8.949219 23.0625 9.097656 22.949219 C 9.449219 22.664062 9.75 22.382812 10 22 C 10.046875 21.929688 10.046875 21.929688 10.09375 21.859375 C 10.214844 21.632812 10.277344 21.40625 10.34375 21.160156 C 10.355469 21.117188 10.367188 21.070312 10.382812 21.023438 C 10.421875 20.871094 10.460938 20.71875 10.5 20.5625 C 10.515625 20.5 10.53125 20.441406 10.546875 20.375 C 10.703125 19.714844 10.757812 19.046875 10.816406 18.371094 C 10.828125 18.257812 10.835938 18.140625 10.847656 18.027344 C 10.851562 17.972656 10.855469 17.914062 10.863281 17.855469 C 10.871094 17.742188 10.882812 17.628906 10.890625 17.515625 C 10.917969 17.222656 10.941406 16.933594 10.964844 16.644531 C 10.976562 16.527344 10.988281 16.410156 10.996094 16.296875 C 11 16.242188 11.003906 16.191406 11.007812 16.136719 C 11.070312 15.433594 11.332031 14.792969 11.621094 14.152344 C 11.75 13.859375 11.867188 13.558594 11.984375 13.261719 C 12.039062 13.121094 12.09375 12.984375 12.148438 12.84375 C 12.175781 12.777344 12.203125 12.707031 12.234375 12.636719 C 12.304688 12.457031 12.378906 12.273438 12.453125 12.09375 C 12.667969 11.5625 12.871094 11.03125 13.058594 10.492188 C 13.140625 10.25 13.230469 10.011719 13.332031 9.777344 C 13.496094 9.394531 13.640625 9.007812 13.785156 8.621094 C 13.808594 8.558594 13.832031 8.496094 13.855469 8.429688 C 13.996094 8.058594 13.996094 8.058594 14.128906 7.6875 C 14.152344 7.625 14.171875 7.566406 14.195312 7.503906 C 14.222656 7.421875 14.222656 7.421875 14.25 7.339844 C 14.386719 7.007812 14.546875 6.664062 14.941406 6.636719 Z M 14.941406 6.636719 "/>
<path style=" stroke:none;fill-rule:nonzero;fill:rgb(3.921569%,3.921569%,3.921569%);fill-opacity:1;" d="M 24.402344 17.738281 C 24.472656 17.761719 24.542969 17.78125 24.617188 17.804688 C 24.851562 17.875 25.082031 17.945312 25.324219 17.996094 C 25.613281 18.058594 25.902344 18.128906 26.1875 18.203125 C 26.242188 18.214844 26.292969 18.230469 26.347656 18.242188 C 26.566406 18.296875 26.789062 18.351562 27.007812 18.410156 C 27.734375 18.589844 28.460938 18.769531 29.1875 18.9375 C 29.28125 18.960938 29.375 18.980469 29.46875 19.003906 C 29.511719 19.011719 29.550781 19.023438 29.59375 19.03125 C 30 19.128906 30.375 19.25 30.75 19.4375 C 30.773438 19.84375 30.773438 19.84375 30.671875 19.984375 C 30.507812 20.101562 30.363281 20.0625 30.171875 20.035156 C 29.824219 19.964844 29.480469 19.878906 29.136719 19.789062 C 29.050781 19.765625 28.964844 19.746094 28.878906 19.722656 C 28.6875 19.675781 28.5 19.628906 28.3125 19.578125 C 27.796875 19.449219 27.285156 19.320312 26.773438 19.191406 C 26.59375 19.148438 26.417969 19.105469 26.238281 19.058594 C 25.742188 18.933594 25.246094 18.8125 24.746094 18.691406 C 24.675781 18.675781 24.605469 18.65625 24.535156 18.640625 C 24.410156 18.609375 24.285156 18.582031 24.160156 18.550781 C 24.082031 18.53125 24.082031 18.53125 24 18.515625 C 23.957031 18.503906 23.910156 18.492188 23.867188 18.480469 C 23.726562 18.429688 23.65625 18.367188 23.5625 18.25 C 23.539062 18.054688 23.53125 17.929688 23.628906 17.757812 C 23.867188 17.617188 24.140625 17.675781 24.402344 17.738281 Z M 24.402344 17.738281 "/>
<path style=" stroke:none;fill-rule:nonzero;fill:rgb(3.529412%,3.529412%,3.529412%);fill-opacity:1;" d="M 8.335938 17.757812 C 8.4375 17.875 8.4375 17.875 8.472656 18.058594 C 8.4375 18.25 8.4375 18.25 8.316406 18.390625 C 8.148438 18.484375 8.054688 18.523438 7.875 18.558594 C 7.824219 18.570312 7.773438 18.582031 7.722656 18.589844 C 7.671875 18.601562 7.617188 18.613281 7.5625 18.625 C 7.332031 18.675781 7.105469 18.726562 6.875 18.777344 C 6.816406 18.789062 6.757812 18.804688 6.699219 18.816406 C 6.429688 18.875 6.167969 18.941406 5.90625 19.035156 C 5.648438 19.121094 5.394531 19.171875 5.125 19.214844 C 4.769531 19.28125 4.421875 19.371094 4.074219 19.460938 C 3.996094 19.480469 3.917969 19.5 3.839844 19.519531 C 3.386719 19.632812 2.933594 19.753906 2.484375 19.890625 C 2.117188 19.988281 1.753906 20.019531 1.375 20 C 1.25 19.875 1.25 19.875 1.234375 19.65625 C 1.25 19.4375 1.25 19.4375 1.375 19.3125 C 1.542969 19.261719 1.707031 19.21875 1.875 19.179688 C 1.925781 19.167969 1.976562 19.152344 2.027344 19.140625 C 2.195312 19.101562 2.359375 19.058594 2.527344 19.019531 C 2.699219 18.976562 2.871094 18.933594 3.042969 18.894531 C 3.15625 18.863281 3.273438 18.835938 3.386719 18.808594 C 3.863281 18.691406 4.335938 18.570312 4.808594 18.445312 C 5.289062 18.320312 5.765625 18.199219 6.25 18.089844 C 6.480469 18.035156 6.710938 17.976562 6.941406 17.914062 C 6.992188 17.902344 7.046875 17.886719 7.101562 17.871094 C 7.207031 17.84375 7.308594 17.816406 7.410156 17.785156 C 8.035156 17.617188 8.035156 17.617188 8.335938 17.757812 Z M 8.335938 17.757812 "/>
<path style=" stroke:none;fill-rule:nonzero;fill:rgb(3.529412%,3.529412%,3.529412%);fill-opacity:1;" d="M 1.929688 14.054688 C 2.632812 14.175781 3.34375 14.230469 4.050781 14.300781 C 4.246094 14.320312 4.441406 14.339844 4.636719 14.359375 C 4.722656 14.371094 4.722656 14.371094 4.8125 14.378906 C 5.148438 14.414062 5.472656 14.464844 5.800781 14.535156 C 5.957031 14.566406 6.113281 14.585938 6.273438 14.59375 C 6.328125 14.601562 6.382812 14.605469 6.441406 14.609375 C 6.554688 14.617188 6.667969 14.625 6.78125 14.632812 C 7.105469 14.660156 7.34375 14.703125 7.625 14.875 C 7.640625 15.226562 7.640625 15.226562 7.5 15.4375 C 7.3125 15.449219 7.144531 15.445312 6.960938 15.429688 C 6.875 15.425781 6.875 15.425781 6.785156 15.421875 C 5.96875 15.367188 5.15625 15.269531 4.339844 15.171875 C 4.164062 15.152344 3.988281 15.128906 3.8125 15.109375 C 3.601562 15.085938 3.390625 15.0625 3.179688 15.039062 C 3.0625 15.023438 3.0625 15.023438 2.945312 15.007812 C 2.871094 15 2.800781 14.992188 2.726562 14.984375 C 2.660156 14.976562 2.597656 14.96875 2.535156 14.960938 C 2.375 14.9375 2.375 14.9375 2.1875 14.875 C 1.964844 14.859375 1.738281 14.851562 1.515625 14.84375 C 1.058594 14.820312 1.058594 14.820312 0.875 14.6875 C 0.742188 14.484375 0.714844 14.421875 0.75 14.1875 C 1.082031 13.875 1.515625 13.976562 1.929688 14.054688 Z M 1.929688 14.054688 "/>
<path style=" stroke:none;fill-rule:nonzero;fill:rgb(3.529412%,3.529412%,3.529412%);fill-opacity:1;" d="M 30.691406 13.988281 C 30.773438 13.988281 30.773438 13.988281 30.855469 13.984375 C 31 14 31 14 31.1875 14.125 C 31.21875 14.335938 31.21875 14.335938 31.1875 14.5625 C 30.929688 14.839844 30.6875 14.859375 30.328125 14.886719 C 30.277344 14.890625 30.222656 14.894531 30.167969 14.898438 C 29.996094 14.914062 29.820312 14.929688 29.648438 14.941406 C 29.527344 14.953125 29.410156 14.960938 29.289062 14.972656 C 29.050781 14.992188 28.8125 15.015625 28.578125 15.035156 C 28.160156 15.070312 27.742188 15.113281 27.328125 15.160156 C 27.261719 15.167969 27.195312 15.175781 27.128906 15.183594 C 26.632812 15.238281 26.140625 15.304688 25.652344 15.378906 C 25.269531 15.4375 24.882812 15.480469 24.5 15.4375 C 24.375 15.3125 24.375 15.3125 24.351562 15.097656 C 24.375 14.875 24.375 14.875 24.484375 14.773438 C 25.042969 14.441406 25.933594 14.496094 26.570312 14.4375 C 26.792969 14.417969 27.011719 14.394531 27.234375 14.375 C 27.289062 14.371094 27.34375 14.363281 27.398438 14.359375 C 27.835938 14.316406 28.269531 14.269531 28.707031 14.214844 C 29.046875 14.175781 29.390625 14.140625 29.734375 14.105469 C 30.058594 14.074219 30.367188 13.992188 30.691406 13.988281 Z M 30.691406 13.988281 "/>
<path style=" stroke:none;fill-rule:nonzero;fill:rgb(3.529412%,3.529412%,3.529412%);fill-opacity:1;" d="M 2.714844 9.140625 C 3.003906 9.226562 3.265625 9.371094 3.535156 9.511719 C 3.746094 9.625 3.964844 9.71875 4.1875 9.8125 C 4.382812 9.894531 4.578125 9.976562 4.773438 10.058594 C 4.914062 10.117188 5.058594 10.175781 5.203125 10.238281 C 5.566406 10.390625 5.921875 10.550781 6.273438 10.730469 C 6.652344 10.917969 7.042969 11.082031 7.429688 11.25 C 7.542969 11.296875 7.652344 11.347656 7.765625 11.398438 C 7.832031 11.425781 7.898438 11.453125 7.964844 11.484375 C 8.125 11.5625 8.125 11.5625 8.25 11.6875 C 8.222656 12.089844 8.222656 12.089844 8.0625 12.25 C 7.652344 12.273438 7.285156 12.117188 6.921875 11.945312 C 6.847656 11.914062 6.847656 11.914062 6.773438 11.878906 C 6.527344 11.765625 6.292969 11.640625 6.0625 11.5 C 5.945312 11.457031 5.828125 11.414062 5.710938 11.371094 C 5.542969 11.304688 5.378906 11.230469 5.21875 11.152344 C 4.863281 10.988281 4.503906 10.832031 4.144531 10.675781 C 4.035156 10.632812 3.929688 10.585938 3.820312 10.539062 C 3.65625 10.46875 3.488281 10.398438 3.324219 10.328125 C 3.160156 10.257812 2.996094 10.1875 2.835938 10.117188 C 2.785156 10.097656 2.734375 10.078125 2.683594 10.054688 C 2.242188 9.863281 2.242188 9.863281 2.125 9.625 C 2.132812 9.429688 2.132812 9.429688 2.1875 9.25 C 2.390625 9.113281 2.476562 9.105469 2.714844 9.140625 Z M 2.714844 9.140625 "/>
<path style=" stroke:none;fill-rule:nonzero;fill:rgb(3.529412%,3.529412%,3.529412%);fill-opacity:1;" d="M 29.6875 9.1875 C 29.8125 9.3125 29.8125 9.3125 29.832031 9.496094 C 29.8125 9.6875 29.8125 9.6875 29.746094 9.78125 C 29.566406 9.917969 29.363281 10 29.15625 10.085938 C 29.070312 10.121094 28.988281 10.15625 28.90625 10.191406 C 28.859375 10.210938 28.816406 10.230469 28.769531 10.25 C 28.550781 10.34375 28.339844 10.441406 28.125 10.539062 C 27.707031 10.730469 27.285156 10.917969 26.867188 11.105469 C 26.492188 11.273438 26.117188 11.441406 25.742188 11.613281 C 25.578125 11.6875 25.414062 11.765625 25.246094 11.839844 C 25.167969 11.875 25.089844 11.914062 25.011719 11.949219 C 24.902344 12 24.792969 12.050781 24.683594 12.101562 C 24.621094 12.128906 24.558594 12.160156 24.492188 12.1875 C 24.296875 12.257812 24.144531 12.265625 23.9375 12.25 C 23.820312 12.179688 23.820312 12.179688 23.75 12.0625 C 23.714844 11.878906 23.714844 11.878906 23.75 11.6875 C 24.011719 11.488281 24.292969 11.351562 24.59375 11.222656 C 24.636719 11.203125 24.679688 11.183594 24.726562 11.164062 C 24.824219 11.121094 24.917969 11.078125 25.015625 11.039062 C 25.269531 10.925781 25.523438 10.816406 25.773438 10.703125 C 25.828125 10.679688 25.878906 10.660156 25.929688 10.636719 C 26.394531 10.429688 26.859375 10.214844 27.320312 10 C 27.425781 9.949219 27.425781 9.949219 27.535156 9.898438 C 27.847656 9.753906 28.15625 9.609375 28.46875 9.460938 C 28.566406 9.414062 28.667969 9.367188 28.769531 9.320312 C 28.8125 9.300781 28.855469 9.277344 28.902344 9.257812 C 29.1875 9.125 29.382812 9.109375 29.6875 9.1875 Z M 29.6875 9.1875 "/>
<path style=" stroke:none;fill-rule:nonzero;fill:rgb(2.745098%,2.745098%,2.745098%);fill-opacity:1;" d="M 5.8125 5 C 5.96875 5.105469 6.089844 5.238281 6.214844 5.378906 C 6.28125 5.449219 6.347656 5.519531 6.414062 5.59375 C 6.464844 5.648438 6.464844 5.648438 6.515625 5.703125 C 6.625 5.8125 6.738281 5.914062 6.859375 6.015625 C 7.226562 6.332031 7.5625 6.683594 7.902344 7.027344 C 8.21875 7.351562 8.539062 7.667969 8.882812 7.960938 C 9.085938 8.136719 9.28125 8.316406 9.472656 8.5 C 9.511719 8.535156 9.550781 8.570312 9.59375 8.609375 C 9.800781 8.808594 9.875 8.878906 9.878906 9.175781 C 9.8125 9.375 9.8125 9.375 9.625 9.5 C 9.480469 9.527344 9.480469 9.527344 9.3125 9.5 C 9.175781 9.398438 9.066406 9.300781 8.945312 9.183594 C 8.910156 9.152344 8.875 9.117188 8.839844 9.082031 C 8.726562 8.972656 8.613281 8.863281 8.5 8.75 C 8.460938 8.710938 8.421875 8.675781 8.382812 8.636719 C 8.101562 8.355469 7.820312 8.074219 7.542969 7.792969 C 6.90625 7.144531 6.90625 7.144531 6.234375 6.53125 C 6.023438 6.351562 5.820312 6.160156 5.621094 5.96875 C 5.554688 5.910156 5.554688 5.910156 5.492188 5.851562 C 5.375 5.738281 5.273438 5.636719 5.1875 5.5 C 5.183594 5.257812 5.183594 5.257812 5.25 5.0625 C 5.449219 4.960938 5.589844 4.972656 5.8125 5 Z M 5.8125 5 "/>
<path style=" stroke:none;fill-rule:nonzero;fill:rgb(2.745098%,2.745098%,2.745098%);fill-opacity:1;" d="M 26.625 5 C 26.75 5.066406 26.75 5.066406 26.8125 5.1875 C 26.820312 5.417969 26.796875 5.566406 26.652344 5.75 C 26.542969 5.863281 26.4375 5.96875 26.3125 6.0625 C 26.269531 6.0625 26.230469 6.0625 26.1875 6.0625 C 26.1875 6.105469 26.1875 6.144531 26.1875 6.1875 C 26.09375 6.28125 26.09375 6.28125 25.964844 6.386719 C 25.792969 6.535156 25.628906 6.683594 25.46875 6.84375 C 25.324219 6.992188 25.175781 7.128906 25.019531 7.261719 C 24.792969 7.457031 24.585938 7.664062 24.375 7.875 C 24.128906 8.121094 23.882812 8.359375 23.617188 8.585938 C 23.484375 8.699219 23.363281 8.824219 23.238281 8.949219 C 22.757812 9.429688 22.757812 9.429688 22.457031 9.460938 C 22.25 9.4375 22.25 9.4375 22.125 9.3125 C 22.089844 9.113281 22.089844 9.113281 22.125 8.875 C 22.257812 8.699219 22.417969 8.5625 22.585938 8.417969 C 22.679688 8.335938 22.769531 8.253906 22.863281 8.171875 C 22.90625 8.132812 22.953125 8.089844 23 8.050781 C 23.164062 7.902344 23.316406 7.75 23.46875 7.59375 C 23.675781 7.382812 23.890625 7.1875 24.117188 6.996094 C 24.320312 6.808594 24.515625 6.609375 24.707031 6.410156 C 24.78125 6.332031 24.859375 6.261719 24.9375 6.1875 C 24.980469 6.1875 25.019531 6.1875 25.0625 6.1875 C 25.0625 6.144531 25.0625 6.105469 25.0625 6.0625 C 25.148438 5.976562 25.148438 5.976562 25.273438 5.875 C 25.546875 5.644531 25.785156 5.386719 26.027344 5.121094 C 26.238281 4.964844 26.367188 4.972656 26.625 5 Z M 26.625 5 "/>
<path style=" stroke:none;fill-rule:nonzero;fill:rgb(3.529412%,3.529412%,3.529412%);fill-opacity:1;" d="M 10.625 2.4375 C 10.808594 2.632812 10.929688 2.839844 11.042969 3.082031 C 11.074219 3.144531 11.105469 3.207031 11.136719 3.273438 C 11.167969 3.339844 11.199219 3.40625 11.230469 3.476562 C 11.261719 3.546875 11.296875 3.613281 11.328125 3.6875 C 11.429688 3.894531 11.527344 4.101562 11.625 4.3125 C 11.707031 4.488281 11.792969 4.667969 11.875 4.84375 C 11.921875 4.945312 11.972656 5.046875 12.019531 5.152344 C 12.113281 5.371094 12.113281 5.371094 12.25 5.5625 C 12.273438 5.785156 12.273438 5.898438 12.148438 6.089844 C 12 6.1875 12 6.1875 11.820312 6.195312 C 11.566406 6.105469 11.519531 6 11.402344 5.765625 C 11.378906 5.714844 11.351562 5.660156 11.328125 5.609375 C 11.300781 5.558594 11.277344 5.503906 11.25 5.449219 C 11.164062 5.28125 11.082031 5.109375 11 4.9375 C 10.972656 4.878906 10.945312 4.824219 10.917969 4.765625 C 10.808594 4.535156 10.699219 4.308594 10.59375 4.082031 C 10.429688 3.734375 10.257812 3.402344 10.058594 3.070312 C 9.988281 2.910156 9.984375 2.796875 10 2.625 C 10.144531 2.375 10.359375 2.402344 10.625 2.4375 Z M 10.625 2.4375 "/>
<path style=" stroke:none;fill-rule:nonzero;fill:rgb(3.529412%,3.529412%,3.529412%);fill-opacity:1;" d="M 21.558594 2.421875 C 21.75 2.4375 21.75 2.4375 21.9375 2.5625 C 21.996094 2.960938 21.847656 3.242188 21.671875 3.585938 C 21.644531 3.640625 21.617188 3.695312 21.589844 3.753906 C 21.503906 3.929688 21.417969 4.101562 21.328125 4.277344 C 21.269531 4.394531 21.210938 4.511719 21.152344 4.628906 C 21.023438 4.894531 20.890625 5.15625 20.757812 5.421875 C 20.710938 5.515625 20.664062 5.609375 20.617188 5.707031 C 20.449219 6.050781 20.449219 6.050781 20.3125 6.1875 C 20.125 6.203125 20.125 6.203125 19.9375 6.1875 C 19.792969 6.042969 19.792969 6.011719 19.789062 5.8125 C 19.796875 5.457031 19.933594 5.183594 20.09375 4.871094 C 20.121094 4.8125 20.148438 4.757812 20.179688 4.699219 C 20.265625 4.527344 20.351562 4.359375 20.4375 4.1875 C 20.484375 4.09375 20.53125 3.996094 20.578125 3.902344 C 20.660156 3.734375 20.746094 3.570312 20.828125 3.40625 C 20.949219 3.164062 21.070312 2.921875 21.1875 2.675781 C 21.292969 2.488281 21.339844 2.441406 21.558594 2.421875 Z M 21.558594 2.421875 "/>
<path style=" stroke:none;fill-rule:nonzero;fill:rgb(5.098039%,5.098039%,5.098039%);fill-opacity:1;" d="M 16.039062 0.945312 C 16.1875 1 16.1875 1 16.375 1.125 C 16.398438 1.265625 16.398438 1.265625 16.398438 1.4375 C 16.398438 1.503906 16.402344 1.570312 16.402344 1.636719 C 16.402344 1.707031 16.398438 1.78125 16.398438 1.851562 C 16.398438 1.925781 16.398438 2 16.402344 2.074219 C 16.402344 2.226562 16.398438 2.382812 16.398438 2.535156 C 16.398438 2.773438 16.398438 3.007812 16.402344 3.242188 C 16.402344 3.394531 16.398438 3.542969 16.398438 3.691406 C 16.402344 3.800781 16.402344 3.800781 16.402344 3.90625 C 16.402344 3.972656 16.398438 4.039062 16.398438 4.105469 C 16.398438 4.164062 16.398438 4.222656 16.398438 4.28125 C 16.371094 4.46875 16.316406 4.554688 16.1875 4.6875 C 16.003906 4.722656 16.003906 4.722656 15.8125 4.6875 C 15.648438 4.550781 15.574219 4.4375 15.539062 4.226562 C 15.527344 4.035156 15.527344 3.847656 15.527344 3.65625 C 15.527344 3.585938 15.527344 3.515625 15.527344 3.445312 C 15.527344 3.296875 15.527344 3.152344 15.527344 3.003906 C 15.527344 2.777344 15.523438 2.550781 15.523438 2.328125 C 15.523438 2.183594 15.523438 2.042969 15.523438 1.898438 C 15.523438 1.796875 15.523438 1.796875 15.519531 1.695312 C 15.527344 1.230469 15.527344 1.230469 15.710938 1.019531 C 15.875 0.9375 15.875 0.9375 16.039062 0.945312 Z M 16.039062 0.945312 "/>
<path style=" stroke:none;fill-rule:nonzero;fill:rgb(4.705882%,4.705882%,4.705882%);fill-opacity:1;" d="M 9.113281 5.105469 C 9.3125 5.125 9.3125 5.125 9.429688 5.222656 C 9.464844 5.269531 9.5 5.316406 9.535156 5.367188 C 9.578125 5.421875 9.617188 5.480469 9.664062 5.539062 C 9.710938 5.609375 9.761719 5.679688 9.8125 5.75 C 9.878906 5.839844 9.941406 5.929688 10.007812 6.019531 C 10.148438 6.210938 10.289062 6.40625 10.429688 6.601562 C 10.546875 6.765625 10.664062 6.929688 10.789062 7.089844 C 10.835938 7.148438 10.882812 7.207031 10.929688 7.269531 C 10.96875 7.320312 11.007812 7.371094 11.050781 7.421875 C 11.125 7.5625 11.125 7.5625 11.109375 7.734375 C 11.0625 7.875 11.0625 7.875 11 7.9375 C 10.828125 7.96875 10.828125 7.96875 10.625 7.9375 C 10.488281 7.796875 10.390625 7.671875 10.28125 7.511719 C 10.214844 7.421875 10.152344 7.328125 10.085938 7.238281 C 10.050781 7.191406 10.019531 7.140625 9.984375 7.089844 C 9.792969 6.820312 9.59375 6.558594 9.398438 6.292969 C 9.324219 6.191406 9.25 6.09375 9.175781 5.992188 C 9.144531 5.949219 9.113281 5.90625 9.082031 5.863281 C 8.902344 5.617188 8.855469 5.492188 8.875 5.1875 C 8.9375 5.125 8.9375 5.125 9.113281 5.105469 Z M 9.113281 5.105469 "/>
<path style=" stroke:none;fill-rule:nonzero;fill:rgb(4.313726%,4.313726%,4.313726%);fill-opacity:1;" d="M 22.886719 5.101562 C 23.0625 5.125 23.0625 5.125 23.125 5.1875 C 23.15625 5.496094 23.101562 5.640625 22.910156 5.882812 C 22.863281 5.941406 22.816406 6.003906 22.769531 6.0625 C 22.699219 6.15625 22.699219 6.15625 22.625 6.25 C 22.535156 6.371094 22.445312 6.488281 22.355469 6.609375 C 22.308594 6.671875 22.261719 6.730469 22.214844 6.796875 C 22.101562 6.945312 21.992188 7.101562 21.886719 7.257812 C 21.855469 7.300781 21.828125 7.34375 21.796875 7.386719 C 21.738281 7.472656 21.679688 7.554688 21.625 7.640625 C 21.542969 7.757812 21.542969 7.757812 21.375 7.9375 C 21.175781 7.972656 21.175781 7.972656 21 7.9375 C 20.957031 7.894531 20.917969 7.855469 20.875 7.8125 C 20.890625 7.527344 21.035156 7.335938 21.199219 7.117188 C 21.226562 7.082031 21.253906 7.042969 21.28125 7.003906 C 21.339844 6.921875 21.402344 6.84375 21.460938 6.761719 C 21.570312 6.613281 21.679688 6.464844 21.789062 6.316406 C 22.179688 5.78125 22.179688 5.78125 22.34375 5.558594 C 22.421875 5.457031 22.5 5.351562 22.574219 5.246094 C 22.6875 5.125 22.6875 5.125 22.886719 5.101562 Z M 22.886719 5.101562 "/>
<path style=" stroke:none;fill-rule:nonzero;fill:rgb(5.098039%,5.098039%,5.098039%);fill-opacity:1;" d="M 5.5 8.125 C 5.804688 8.136719 6.03125 8.3125 6.277344 8.476562 C 6.324219 8.507812 6.367188 8.535156 6.414062 8.566406 C 6.511719 8.632812 6.613281 8.699219 6.710938 8.765625 C 6.890625 8.882812 7.070312 9 7.25 9.117188 C 7.375 9.199219 7.5 9.285156 7.625 9.367188 C 7.6875 9.40625 7.746094 9.445312 7.808594 9.488281 C 7.894531 9.542969 7.894531 9.542969 7.980469 9.601562 C 8.03125 9.632812 8.082031 9.667969 8.132812 9.703125 C 8.277344 9.839844 8.300781 9.929688 8.3125 10.125 C 8.242188 10.242188 8.242188 10.242188 8.125 10.3125 C 7.878906 10.285156 7.730469 10.210938 7.535156 10.0625 C 7.28125 9.878906 7.023438 9.699219 6.761719 9.527344 C 6.726562 9.503906 6.6875 9.480469 6.652344 9.453125 C 6.5 9.355469 6.347656 9.253906 6.195312 9.152344 C 6.082031 9.078125 5.972656 9.003906 5.859375 8.929688 C 5.792969 8.886719 5.726562 8.84375 5.660156 8.796875 C 5.5 8.6875 5.5 8.6875 5.375 8.5625 C 5.359375 8.40625 5.359375 8.40625 5.375 8.25 C 5.417969 8.207031 5.457031 8.167969 5.5 8.125 Z M 5.5 8.125 "/>
<path style=" stroke:none;fill-rule:nonzero;fill:rgb(4.705882%,4.705882%,4.705882%);fill-opacity:1;" d="M 26.5 8.1875 C 26.542969 8.230469 26.582031 8.269531 26.625 8.3125 C 26.621094 8.460938 26.621094 8.460938 26.5625 8.625 C 26.433594 8.738281 26.433594 8.738281 26.253906 8.847656 C 26.1875 8.890625 26.117188 8.933594 26.050781 8.976562 C 26.011719 9 25.972656 9.023438 25.9375 9.046875 C 25.703125 9.195312 25.472656 9.351562 25.242188 9.503906 C 25.195312 9.535156 25.144531 9.566406 25.09375 9.601562 C 24.785156 9.808594 24.484375 10.019531 24.191406 10.25 C 24.019531 10.332031 23.925781 10.304688 23.75 10.25 C 23.6875 10.1875 23.6875 10.1875 23.667969 10.039062 C 23.6875 9.875 23.6875 9.875 23.796875 9.765625 C 23.875 9.710938 23.875 9.710938 23.957031 9.65625 C 24.019531 9.613281 24.082031 9.570312 24.144531 9.527344 C 24.179688 9.503906 24.21875 9.480469 24.253906 9.457031 C 24.390625 9.363281 24.527344 9.269531 24.664062 9.175781 C 24.914062 9.003906 25.164062 8.832031 25.417969 8.660156 C 25.515625 8.59375 25.617188 8.523438 25.714844 8.457031 C 25.765625 8.421875 25.816406 8.386719 25.867188 8.351562 C 25.910156 8.320312 25.957031 8.289062 26 8.257812 C 26.175781 8.160156 26.304688 8.148438 26.5 8.1875 Z M 26.5 8.1875 "/>
<path style=" stroke:none;fill-rule:nonzero;fill:rgb(6.27451%,6.27451%,6.27451%);fill-opacity:1;" d="M 25.863281 16.421875 C 26.375 16.425781 26.886719 16.476562 27.398438 16.523438 C 27.441406 16.527344 27.484375 16.53125 27.53125 16.535156 C 27.65625 16.546875 27.78125 16.558594 27.90625 16.570312 C 27.980469 16.578125 28.054688 16.585938 28.128906 16.59375 C 28.3125 16.625 28.3125 16.625 28.5 16.75 C 28.519531 16.90625 28.519531 16.90625 28.5 17.0625 C 28.375 17.1875 28.375 17.1875 28.152344 17.191406 C 28.054688 17.1875 27.953125 17.183594 27.855469 17.175781 C 27.800781 17.171875 27.75 17.167969 27.691406 17.167969 C 27.175781 17.132812 26.664062 17.085938 26.148438 17.039062 C 26.066406 17.03125 25.988281 17.023438 25.90625 17.015625 C 25.828125 17.011719 25.753906 17.003906 25.675781 16.996094 C 25.609375 16.988281 25.542969 16.980469 25.472656 16.976562 C 25.3125 16.9375 25.3125 16.9375 25.1875 16.75 C 25.246094 16.339844 25.496094 16.421875 25.863281 16.421875 Z M 25.863281 16.421875 "/>
<path style=" stroke:none;fill-rule:nonzero;fill:rgb(5.882353%,5.882353%,5.882353%);fill-opacity:1;" d="M 6.6875 16.4375 C 6.75 16.5 6.75 16.5 6.761719 16.652344 C 6.75 16.8125 6.75 16.8125 6.625 16.9375 C 6.488281 16.96875 6.488281 16.96875 6.316406 16.988281 C 6.222656 17 6.222656 17 6.125 17.011719 C 6.023438 17.023438 6.023438 17.023438 5.921875 17.035156 C 5.855469 17.042969 5.785156 17.050781 5.714844 17.058594 C 4.109375 17.246094 4.109375 17.246094 3.625 17.1875 C 3.5 17.0625 3.5 17.0625 3.484375 16.90625 C 3.5 16.75 3.5 16.75 3.625 16.625 C 3.800781 16.601562 3.972656 16.582031 4.148438 16.570312 C 4.199219 16.566406 4.253906 16.5625 4.308594 16.558594 C 4.417969 16.550781 4.53125 16.542969 4.640625 16.535156 C 4.808594 16.523438 4.980469 16.511719 5.148438 16.5 C 5.253906 16.488281 5.363281 16.480469 5.472656 16.472656 C 5.546875 16.46875 5.546875 16.46875 5.625 16.460938 C 5.976562 16.4375 6.332031 16.417969 6.6875 16.4375 Z M 6.6875 16.4375 "/>
<path style=" stroke:none;fill-rule:nonzero;fill:rgb(5.098039%,5.098039%,5.098039%);fill-opacity:1;" d="M 4 12.375 C 4.511719 12.375 5.007812 12.523438 5.5 12.648438 C 5.574219 12.667969 5.652344 12.6875 5.726562 12.707031 C 6.15625 12.816406 6.578125 12.929688 7 13.0625 C 7.039062 13.210938 7.039062 13.210938 7.0625 13.375 C 6.9375 13.5 6.9375 13.5 6.75 13.515625 C 6.449219 13.496094 6.175781 13.433594 5.886719 13.359375 C 5.769531 13.332031 5.65625 13.300781 5.539062 13.273438 C 5.480469 13.257812 5.421875 13.242188 5.363281 13.230469 C 5.195312 13.1875 5.027344 13.152344 4.859375 13.117188 C 4.808594 13.105469 4.753906 13.097656 4.703125 13.085938 C 4.605469 13.066406 4.507812 13.046875 4.414062 13.027344 C 4.230469 12.988281 4.085938 12.957031 3.9375 12.847656 C 3.875 12.75 3.875 12.75 3.890625 12.585938 C 3.9375 12.4375 3.9375 12.4375 4 12.375 Z M 4 12.375 "/>
<path style=" stroke:none;fill-rule:nonzero;fill:rgb(5.490196%,5.490196%,5.490196%);fill-opacity:1;" d="M 28 12.375 C 28.042969 12.417969 28.082031 12.457031 28.125 12.5 C 28.113281 12.65625 28.113281 12.65625 28.0625 12.8125 C 27.851562 12.953125 27.710938 12.976562 27.464844 13.019531 C 27.089844 13.089844 26.730469 13.179688 26.363281 13.289062 C 25.941406 13.410156 25.507812 13.53125 25.0625 13.5 C 25.019531 13.457031 24.980469 13.417969 24.9375 13.375 C 24.960938 13.210938 24.960938 13.210938 25 13.0625 C 25.578125 12.890625 26.164062 12.734375 26.746094 12.578125 C 26.820312 12.558594 26.894531 12.539062 26.96875 12.519531 C 27.664062 12.335938 27.664062 12.335938 28 12.375 Z M 28 12.375 "/>
<path style=" stroke:none;fill-rule:nonzero;fill:rgb(4.705882%,4.705882%,4.705882%);fill-opacity:1;" d="M 24.5 19.6875 C 24.761719 19.710938 24.96875 19.78125 25.203125 19.894531 C 25.292969 19.9375 25.292969 19.9375 25.386719 19.980469 C 25.449219 20.011719 25.511719 20.042969 25.574219 20.074219 C 25.664062 20.117188 25.664062 20.117188 25.757812 20.164062 C 25.945312 20.253906 26.128906 20.34375 26.3125 20.4375 C 26.378906 20.46875 26.441406 20.5 26.507812 20.53125 C 26.570312 20.5625 26.632812 20.597656 26.699219 20.628906 C 26.753906 20.65625 26.8125 20.683594 26.871094 20.710938 C 27 20.8125 27 20.8125 27.058594 20.972656 C 27.058594 21.023438 27.0625 21.074219 27.0625 21.125 C 26.9375 21.25 26.9375 21.25 26.769531 21.269531 C 26.519531 21.246094 26.328125 21.15625 26.109375 21.039062 C 26.066406 21.015625 26.023438 20.996094 25.980469 20.972656 C 25.890625 20.925781 25.796875 20.875 25.707031 20.828125 C 25.554688 20.746094 25.402344 20.667969 25.25 20.589844 C 25.148438 20.535156 25.042969 20.480469 24.941406 20.425781 C 24.890625 20.402344 24.84375 20.375 24.792969 20.347656 C 24.453125 20.167969 24.453125 20.167969 24.367188 19.957031 C 24.375 19.8125 24.375 19.8125 24.5 19.6875 Z M 24.5 19.6875 "/>
<path style=" stroke:none;fill-rule:nonzero;fill:rgb(4.313726%,4.313726%,4.313726%);fill-opacity:1;" d="M 7.5 19.6875 C 7.625 19.8125 7.625 19.8125 7.632812 19.960938 C 7.527344 20.210938 7.324219 20.28125 7.089844 20.394531 C 7.042969 20.417969 6.996094 20.441406 6.945312 20.464844 C 6.847656 20.515625 6.75 20.566406 6.648438 20.613281 C 6.503906 20.683594 6.363281 20.757812 6.222656 20.832031 C 6.136719 20.878906 6.046875 20.921875 5.960938 20.96875 C 5.921875 20.988281 5.882812 21.011719 5.839844 21.03125 C 5.582031 21.164062 5.351562 21.234375 5.0625 21.25 C 4.9375 21.125 4.9375 21.125 4.917969 20.953125 C 5.054688 20.617188 5.359375 20.542969 5.675781 20.40625 C 5.808594 20.347656 5.9375 20.285156 6.070312 20.226562 C 6.132812 20.199219 6.199219 20.171875 6.261719 20.140625 C 6.53125 20.019531 6.785156 19.882812 7.042969 19.746094 C 7.207031 19.679688 7.324219 19.667969 7.5 19.6875 Z M 7.5 19.6875 "/>
<path style=" stroke:none;fill-rule:nonzero;fill:rgb(6.27451%,6.27451%,6.27451%);fill-opacity:1;" d="M 18.601562 2.804688 C 18.707031 2.808594 18.707031 2.808594 18.8125 2.8125 C 18.972656 3.128906 18.855469 3.496094 18.757812 3.816406 C 18.726562 3.925781 18.726562 3.925781 18.691406 4.039062 C 18.667969 4.109375 18.648438 4.175781 18.625 4.25 C 18.605469 4.316406 18.582031 4.386719 18.5625 4.457031 C 18.5 4.625 18.5 4.625 18.375 4.75 C 18.21875 4.765625 18.21875 4.765625 18.0625 4.75 C 17.9375 4.625 17.9375 4.625 17.921875 4.40625 C 17.929688 4.09375 18.003906 3.808594 18.085938 3.507812 C 18.101562 3.453125 18.113281 3.402344 18.128906 3.347656 C 18.269531 2.816406 18.269531 2.816406 18.601562 2.804688 Z M 18.601562 2.804688 "/>
<path style=" stroke:none;fill-rule:nonzero;fill:rgb(4.313726%,4.313726%,4.313726%);fill-opacity:1;" d="M 13.402344 2.792969 C 13.59375 2.816406 13.628906 2.851562 13.75 3 C 13.800781 3.128906 13.800781 3.128906 13.835938 3.277344 C 13.851562 3.332031 13.863281 3.386719 13.878906 3.441406 C 13.890625 3.5 13.902344 3.554688 13.917969 3.613281 C 13.933594 3.667969 13.945312 3.722656 13.960938 3.78125 C 14.03125 4.066406 14.09375 4.332031 14.0625 4.625 C 13.9375 4.75 13.9375 4.75 13.742188 4.757812 C 13.652344 4.753906 13.652344 4.753906 13.5625 4.75 C 13.429688 4.453125 13.324219 4.160156 13.238281 3.84375 C 13.214844 3.765625 13.195312 3.6875 13.171875 3.609375 C 13.125 3.375 13.105469 3.175781 13.125 2.9375 C 13.25 2.8125 13.25 2.8125 13.402344 2.792969 Z M 13.402344 2.792969 "/>
<path style=" stroke:none;fill-rule:nonzero;fill:rgb(89.803922%,89.411765%,89.803922%);fill-opacity:1;" d="M 15.9375 15.5 C 16.15625 15.71875 16.132812 16 16.136719 16.296875 C 16.132812 16.632812 16.085938 16.925781 16 17.25 C 15.703125 16.675781 15.8125 16.105469 15.9375 15.5 Z M 15.9375 15.5 "/>
<path style=" stroke:none;fill-rule:nonzero;fill:rgb(68.627453%,68.627453%,68.627453%);fill-opacity:1;" d="M 15.9375 15.5 C 16.125 15.6875 16.121094 15.871094 16.132812 16.132812 C 16.128906 16.199219 16.128906 16.265625 16.128906 16.332031 C 16.128906 16.398438 16.128906 16.464844 16.128906 16.535156 C 16.125 16.585938 16.125 16.636719 16.125 16.6875 C 16.105469 16.6875 16.082031 16.6875 16.0625 16.6875 C 16.054688 16.648438 16.046875 16.613281 16.039062 16.574219 C 16.027344 16.523438 16.015625 16.472656 16.003906 16.421875 C 15.992188 16.371094 15.980469 16.324219 15.972656 16.273438 C 15.949219 16.179688 15.925781 16.085938 15.898438 15.992188 C 15.863281 15.820312 15.902344 15.671875 15.9375 15.5 Z M 15.9375 15.5 "/>
<path style=" stroke:none;fill-rule:nonzero;fill:rgb(17.254902%,16.862746%,17.254902%);fill-opacity:1;" d="M 15.140625 7.457031 C 15.175781 7.472656 15.210938 7.484375 15.25 7.5 C 15.183594 7.539062 15.183594 7.539062 15.113281 7.578125 C 14.9375 7.6875 14.78125 7.804688 14.625 7.9375 C 14.710938 7.671875 14.820312 7.414062 15.140625 7.457031 Z M 15.140625 7.457031 "/>
<path style=" stroke:none;fill-rule:nonzero;fill:rgb(29.019609%,29.019609%,29.019609%);fill-opacity:1;" d="M 2.6875 9.125 C 2.648438 9.140625 2.613281 9.160156 2.574219 9.175781 C 2.359375 9.292969 2.257812 9.421875 2.125 9.625 C 2.144531 9.445312 2.144531 9.445312 2.1875 9.25 C 2.390625 9.117188 2.457031 9.113281 2.6875 9.125 Z M 2.6875 9.125 "/>
</g>
</svg>
