<?xml version="1.0" encoding="UTF-8"?>
<svg version="1.1" xmlns="http://www.w3.org/2000/svg" width="32" height="32">
<path d="M0 0 C10.56 0 21.12 0 32 0 C32 10.56 32 21.12 32 32 C21.44 32 10.88 32 0 32 C0 21.44 0 10.88 0 0 Z " fill="#FCFCFC" transform="translate(0,0)"/>
<path d="M0 0 C1.67299959 0.65061095 3.33859237 1.32033324 5 2 C5.721875 2.268125 6.44375 2.53625 7.1875 2.8125 C9.75260032 4.49308297 10.13988374 6.08883728 11 9 C11.103125 10.051875 11.20625 11.10375 11.3125 12.1875 C11.6528125 13.5796875 11.6528125 13.5796875 12 15 C14.46255685 16.45291273 14.46255685 16.45291273 17 17 C14.125 22.875 14.125 22.875 13 24 C11.33382885 24.04063832 9.66611905 24.042721 8 24 C8 23.01 8 22.02 8 21 C7.34 21.66 6.68 22.32 6 23 C3.375 22.625 3.375 22.625 1 22 C1.04125 20.96875 1.0825 19.9375 1.125 18.875 C1.20752447 15.09552714 1.20752447 15.09552714 -0.0625 12.125 C-1.33368173 7.88772757 -0.70862261 4.30919154 0 0 Z " fill="#373334" transform="translate(10,4)"/>
<path d="M0 0 C0.061875 0.94875 0.12375 1.8975 0.1875 2.875 C0.455625 3.90625 0.72375 4.9375 1 6 C3.46255685 7.45291273 3.46255685 7.45291273 6 8 C3.125 13.875 3.125 13.875 2 15 C0.33382885 15.04063832 -1.33388095 15.042721 -3 15 C-2.896875 14.29875 -2.79375 13.5975 -2.6875 12.875 C-2.762613 9.70802573 -2.762613 9.70802573 -5.5625 6.9375 C-8 4 -8 4 -7.9375 1.6875 C-5.93829558 -1.91106795 -3.50174348 -0.8293603 0 0 Z " fill="#262224" transform="translate(21,13)"/>
<path d="M0 0 C1.67299959 0.65061095 3.33859237 1.32033324 5 2 C5.7425 2.28875 6.485 2.5775 7.25 2.875 C9 4 9 4 9.75 6.125 C9.87375 7.053125 9.87375 7.053125 10 8 C9.443125 7.773125 8.88625 7.54625 8.3125 7.3125 C5.09447789 6.87763215 3.67610793 8.30982657 1 10 C0.34 9.67 -0.32 9.34 -1 9 C-0.67 6.03 -0.34 3.06 0 0 Z " fill="#434041" transform="translate(10,4)"/>
<path d="M0 0 C0.99 0.66 1.98 1.32 3 2 C1.3125 5 1.3125 5 -1 8 C-3.75 8.375 -3.75 8.375 -6 8 C-4.55746343 4.63408134 -2.66735273 2.48952921 0 0 Z " fill="#393536" transform="translate(24,20)"/>
<path d="M0 0 C0.33 0.99 0.66 1.98 1 3 C1.66 3.33 2.32 3.66 3 4 C2.67 5.98 2.34 7.96 2 10 C1.01 9.67 0.02 9.34 -1 9 C-0.67 6.03 -0.34 3.06 0 0 Z " fill="#565354" transform="translate(10,4)"/>
</svg>
